<?xml version="1.0" encoding="UTF-8" standalone="no"?>
<!-- Created with Inkscape (http://www.inkscape.org/) -->

<svg
   xmlns:dc="http://purl.org/dc/elements/1.1/"
   xmlns:cc="http://creativecommons.org/ns#"
   xmlns:rdf="http://www.w3.org/1999/02/22-rdf-syntax-ns#"
   xmlns:svg="http://www.w3.org/2000/svg"
   xmlns="http://www.w3.org/2000/svg"
   xmlns:sodipodi="http://sodipodi.sourceforge.net/DTD/sodipodi-0.dtd"
   xmlns:inkscape="http://www.inkscape.org/namespaces/inkscape"
   width="1052.3622"
   height="744.09448"
   id="svg2"
   version="1.1"
   inkscape:version="0.48.2 r9819"
   sodipodi:docname="New document 1">
  <defs
     id="defs4">
    <inkscape:perspective
       sodipodi:type="inkscape:persp3d"
       inkscape:vp_x="-135.52785 : 521.28407 : 1"
       inkscape:vp_y="0 : 1060.6547 : 0"
       inkscape:vp_z="1280.7855 : 521.28407 : 1"
       inkscape:persp3d-origin="572.62883 : 389.74618 : 1"
       id="perspective3773" />
  </defs>
  <sodipodi:namedview
     id="base"
     pagecolor="#ffffff"
     bordercolor="#666666"
     borderopacity="1.0"
     inkscape:pageopacity="0.0"
     inkscape:pageshadow="2"
     inkscape:zoom="0.7"
     inkscape:cx="462.14286"
     inkscape:cy="405.71429"
     inkscape:document-units="px"
     inkscape:current-layer="layer1"
     showgrid="false"
     inkscape:window-width="1225"
     inkscape:window-height="756"
     inkscape:window-x="55"
     inkscape:window-y="22"
     inkscape:window-maximized="1" />
  <metadata
     id="metadata7">
    <rdf:RDF>
      <cc:Work
         rdf:about="">
        <dc:format>image/svg+xml</dc:format>
        <dc:type
           rdf:resource="http://purl.org/dc/dcmitype/StillImage" />
        <dc:title></dc:title>
      </cc:Work>
    </rdf:RDF>
  </metadata>
  <g
     inkscape:label="Layer 1"
     inkscape:groupmode="layer"
     id="layer1"
     transform="translate(0,-308.2677)">
    <path
       style="fill:#d5f6ff;fill-opacity:1;stroke:#aeeff7;stroke-width:5;stroke-opacity:1;stroke-miterlimit:4;stroke-dasharray:none"
       d="m 186.63878,416.94172 c -0.35308,0 -0.61207,0.30385 -0.61207,0.64991 l 0,241.01664 c 0,0.34607 0.25899,0.59992 0.61207,0.59992 l 80.43662,0 -1.78521,137.13102 96.70758,-137.13102 168.47316,0 c 0.35308,0 0.66308,-0.25385 0.66308,-0.59992 l 0,-241.01664 c 0,-0.34606 -0.31,-0.64991 -0.66308,-0.64991 l -343.83215,0 z"
       id="rect3755"
       inkscape:connector-curvature="0" />
    <path
       sodipodi:type="arc"
       style="fill:#ffffff;fill-opacity:1;stroke:#aeeff7;stroke-width:7.09685821;stroke-miterlimit:4;stroke-opacity:1;stroke-dasharray:none"
       id="path3809"
       sodipodi:cx="417.85715"
       sodipodi:cy="216.95163"
       sodipodi:rx="75"
       sodipodi:ry="72.85714"
       d="m 492.85715,216.95163 a 75,72.85714 0 1 1 -150,0 75,72.85714 0 1 1 150,0 z"
       transform="matrix(0.6991776,0,0,0.70993771,158.55794,339.76861)" />
    <path
       inkscape:connector-curvature="0"
       id="path3811"
       d="m 665.48822,519.15554 c -0.0605,0 -0.10482,0.052 -0.10482,0.1113 l 0,41.27284 c 0,0.0593 0.0444,0.10273 0.10482,0.10273 l 13.77435,0 -0.30571,23.48297 16.56067,-23.48297 28.85014,0 c 0.0605,0 0.11355,-0.0435 0.11355,-0.10273 l 0,-41.27284 c 0,-0.0593 -0.0531,-0.1113 -0.11355,-0.1113 l -58.87945,0 z"
       style="fill:#d5f6ff;fill-opacity:1;stroke:#aeeff7;stroke-width:0.85622388;stroke-miterlimit:4;stroke-opacity:1;stroke-dasharray:none"
       inkscape:export-filename="/Users/Arunoda/Dropbox/ocb/favicon.png"
       inkscape:export-xdpi="70"
       inkscape:export-ydpi="70" />
    <path
       transform="matrix(0.11973051,0,0,0.12157312,660.67952,505.94005)"
       d="m 492.85715,216.95163 a 75,72.85714 0 1 1 -150,0 75,72.85714 0 1 1 150,0 z"
       sodipodi:ry="72.85714"
       sodipodi:rx="75"
       sodipodi:cy="216.95163"
       sodipodi:cx="417.85715"
       id="path3813"
       style="fill:#ffffff;fill-opacity:1;stroke:#aeeff7;stroke-width:7.09685802;stroke-miterlimit:4;stroke-opacity:1;stroke-dasharray:none"
       sodipodi:type="arc"
       inkscape:export-filename="/Users/Arunoda/Dropbox/ocb/favicon.png"
       inkscape:export-xdpi="70"
       inkscape:export-ydpi="70" />
  </g>
</svg>
